<svg xmlns="http://www.w3.org/2000/svg" width="20" height="20" viewBox="0 0 20 20">
    <g fill="none" fill-rule="evenodd">
        <path d="M0 0h20v20H0z"/>
        <path fill="#FFFFFF" d="M16.192 10.817c.033-.267.058-.534.058-.817 0-.283-.025-.55-.058-.817l1.758-1.375a.42.42 0 0 0 .1-.533l-1.667-2.883c-.1-.184-.325-.25-.508-.184l-2.075.834a6.088 6.088 0 0 0-1.408-.817l-.317-2.208a.406.406 0 0 0-.408-.35H8.333a.406.406 0 0 0-.408.35l-.317 2.208a6.402 6.402 0 0 0-1.408.817l-2.075-.834a.406.406 0 0 0-.508.184L1.95 7.275a.41.41 0 0 0 .1.533l1.758 1.375A6.609 6.609 0 0 0 3.75 10c0 .275.025.55.058.817L2.05 12.192a.42.42 0 0 0-.1.533l1.667 2.883c.1.184.325.25.508.184l2.075-.834c.433.334.9.609 1.408.817l.317 2.208c.025.2.2.35.408.35h3.334c.208 0 .383-.15.408-.35l.317-2.208a6.402 6.402 0 0 0 1.408-.817l2.075.834c.192.075.408 0 .508-.184l1.667-2.883a.42.42 0 0 0-.1-.533l-1.758-1.375zM10 14.375A4.38 4.38 0 0 1 5.625 10 4.38 4.38 0 0 1 10 5.625 4.38 4.38 0 0 1 14.375 10 4.38 4.38 0 0 1 10 14.375z"/>
        <path fill="#404E68" d="M10 12.292A2.294 2.294 0 0 1 7.708 10 2.294 2.294 0 0 1 10 7.708 2.294 2.294 0 0 1 12.292 10 2.294 2.294 0 0 1 10 12.292z"/>
    </g>
</svg>
