<svg xmlns="http://www.w3.org/2000/svg" width="20" height="20" viewBox="0 0 20 20">
    <g fill="none" fill-rule="evenodd">
        <path d="M0 0h20v20H0z"/>
        <path fill="#FFFFFF" d="M15.833 2.5H12.35A2.509 2.509 0 0 0 10 .833c-1.083 0-2 .7-2.35 1.667H4.167C3.25 2.5 2.5 3.25 2.5 4.167v11.666c0 .917.75 1.667 1.667 1.667h11.666c.917 0 1.667-.75 1.667-1.667V4.167c0-.917-.75-1.667-1.667-1.667zM10 2.5c.458 0 .833.375.833.833a.836.836 0 0 1-.833.834.836.836 0 0 1-.833-.834c0-.458.375-.833.833-.833zM8.333 14.167L5 10.833l1.175-1.175 2.158 2.15 5.492-5.491L15 7.5l-6.667 6.667z"/>
    </g>
</svg>
