<svg xmlns="http://www.w3.org/2000/svg" width="20" height="21" viewBox="0 0 20 21">
    <g fill="none" fill-rule="evenodd">
        <path d="M0 0h20v20H0z"/>
        <path fill="#FFFFFF" d="M17.5 2.5h-15c-.917 0-1.667.75-1.667 1.667v10c0 .916.75 1.666 1.667 1.666h4.167V17.5h6.666v-1.667H17.5c.917 0 1.658-.75 1.658-1.666l.009-10c0-.917-.75-1.667-1.667-1.667zm0 11.667h-15v-10h15v10zm-1.667-7.5H6.667v1.666h9.166V6.667zm0 3.333H6.667v1.667h9.166V10zm-10-3.333H4.167v1.666h1.666V6.667zm0 3.333H4.167v1.667h1.666V10z"/>
    </g>
</svg>
