<svg xmlns="http://www.w3.org/2000/svg" width="20" height="20" viewBox="0 0 20 20">
    <g fill="none" fill-rule="evenodd">
        <path d="M0 0h20v20H0z"/>
        <path fill="#FFF" d="M9.583 7.5a2.084 2.084 0 1 0 .002 4.168A2.084 2.084 0 0 0 9.583 7.5zm7.084-4.167H3.333c-.916 0-1.666.75-1.666 1.667v10c0 .917.75 1.667 1.666 1.667h13.334c.916 0 1.666-.75 1.666-1.667V5c0-.917-.75-1.667-1.666-1.667zm-2.675 11.842l-2.425-2.425a3.695 3.695 0 0 1-1.992.583 3.743 3.743 0 0 1-3.742-3.75 3.745 3.745 0 0 1 3.75-3.75 3.745 3.745 0 0 1 3.75 3.75c0 .734-.216 1.409-.583 1.992l2.425 2.417-1.183 1.183z"/>
    </g>
</svg>
