<svg xmlns="http://www.w3.org/2000/svg" width="20" height="20" viewBox="0 0 20 20">
    <g fill="none" fill-rule="evenodd">
        <path d="M0 0h20v20H0z"/>
        <path fill="#FFFFFF" d="M16.667 16.325V6.667l-5-5H5c-.917 0-1.658.75-1.658 1.666l-.009 13.334c0 .916.742 1.666 1.659 1.666H15c.375 0 .708-.125.992-.333L12.3 14.308A4.197 4.197 0 0 1 10 15a4.168 4.168 0 0 1-4.167-4.167c0-2.3 1.867-4.166 4.167-4.166s4.167 1.866 4.167 4.166c0 .85-.259 1.634-.692 2.292l3.192 3.2zM7.5 10.833c0 1.384 1.117 2.5 2.5 2.5s2.5-1.116 2.5-2.5c0-1.383-1.117-2.5-2.5-2.5a2.497 2.497 0 0 0-2.5 2.5z"/>
    </g>
</svg>
