<svg xmlns="http://www.w3.org/2000/svg" xmlns:xlink="http://www.w3.org/1999/xlink" width="20" height="20" viewBox="0 0 20 20">
    <defs>
        <path id="a" d="M0 0h20v20H0z"/>
    </defs>
    <g fill="none" fill-rule="evenodd">
        <mask id="b" fill="#fff">
            <use xlink:href="#a"/>
        </mask>
        <path fill="#FFFFFF" d="M17.5 4.167c-.925-.292-1.942-.417-2.917-.417-1.625 0-3.375.333-4.583 1.25-1.208-.917-2.958-1.25-4.583-1.25S2.042 4.083.833 5v12.208c0 .209.209.417.417.417.083 0 .125-.042.208-.042 1.125-.541 2.75-.916 3.959-.916 1.625 0 3.375.333 4.583 1.25 1.125-.709 3.167-1.25 4.583-1.25 1.375 0 2.792.25 3.959.875.083.041.125.041.208.041a.448.448 0 0 0 .417-.416V5c-.5-.375-1.042-.625-1.667-.833zm0 11.25c-.917-.292-1.917-.417-2.917-.417-1.416 0-3.458.542-4.583 1.25V6.667c1.125-.709 3.167-1.25 4.583-1.25 1 0 2 .125 2.917.416v9.584z" mask="url(#b)"/>
    </g>
</svg>
