<svg xmlns="http://www.w3.org/2000/svg" width="24" height="24" viewBox="0 0 24 24">
    <g fill="none" fill-rule="evenodd">
        <path d="M0 0h24v24H0z"/>
        <path fill="#404E68" fill-rule="nonzero" d="M11.5 3.709c2.857 0 5.143 2.46 5.143 5.467h1.571c0-3.964-3-7.176-6.714-7.176-3.714 0-6.714 3.212-6.714 7.176h1.571c0-3.007 2.286-5.467 5.143-5.467zm6.786 6.15H4.714c-.357 0-.714.274-.714.684v9.774c0 .41.286.683.714.683h13.572c.357 0 .714-.273.714-.683v-9.774c0-.41-.286-.683-.714-.683zm-5.643 7.109c0 .615-.5 1.161-1.214 1.161-.643 0-1.215-.478-1.215-1.161v-2.94c0-.614.5-1.161 1.215-1.161.642 0 1.214.478 1.214 1.162v2.939z"/>
    </g>
</svg>
