<?xml version="1.0" encoding="UTF-8"?>
<svg width="16px" height="16px" viewBox="0 0 16 16" version="1.1" xmlns="http://www.w3.org/2000/svg" xmlns:xlink="http://www.w3.org/1999/xlink">
    <!-- Generator: Sketch 46.2 (44496) - http://www.bohemiancoding.com/sketch -->
    <title>代发工资a_icon</title>
    <desc>Created with Sketch.</desc>
    <defs></defs>
    <g id="控件" stroke="none" stroke-width="1" fill="none" fill-rule="evenodd">
        <g id="Artboard" transform="translate(-747.000000, -56.000000)">
            <g id="Group-16" transform="translate(38.000000, 48.000000)">
                <g id="Group-7" transform="translate(520.000000, 0.000000)">
                    <g id="Group-8" transform="translate(189.000000, 8.000000)">
                        <path d="M1.96661376,4.08775833 C1.35370863,5.07955105 1,6.24846899 1,7.5 C1,11.0898509 3.91014913,14 7.5,14 L7.5,14 C8.8582821,14 10.1192569,13.5833778 11.162106,12.8709518 M12.7835486,11.2868895 C13.5491852,10.2205484 14,8.91292092 14,7.5 C14,3.91014913 11.0898509,1 7.5,1 C6.18642453,1 4.96385623,1.38964804 3.94157187,2.05966734" id="Oval-6" stroke="#404E68"></path>
                        <path d="M7.5,10.5 L7.5,6.5" id="Line-6" stroke="#404E68" stroke-linecap="square"></path>
                        <path d="M8.5,6.5 L9.5,4.5" id="Line-7" stroke="#404E68" stroke-linecap="square"></path>
                        <path d="M6.5,6.5 L5.5,4.5" id="Line-8" stroke="#404E68" stroke-linecap="square"></path>
                        <path d="M5.5,6.5 L9.5,6.5" id="Line-4" stroke="#404E68" stroke-linecap="square"></path>
                        <path d="M5.5,8.5 L9.5,8.5" id="Line-5" stroke="#404E68" stroke-linecap="square"></path>
                        <polygon id="Path-2-Copy-2" fill="#404E68" points="0.0868533942 4.06385994 3.0766134 6.09762333 3.0766134 3"></polygon>
                        <polygon id="Path-2-Copy-3" fill="#404E68" transform="translate(13.555748, 10.581204) rotate(-180.000000) translate(-13.555748, -10.581204) " points="12 10.5812041 15.1114961 12.1624082 15.1114961 9"></polygon>
                    </g>
                </g>
            </g>
        </g>
    </g>
</svg>