<?xml version="1.0" encoding="UTF-8"?>
<svg width="16px" height="16px" viewBox="0 0 16 16" version="1.1" xmlns="http://www.w3.org/2000/svg" xmlns:xlink="http://www.w3.org/1999/xlink">
    <!-- Generator: Sketch 46.2 (44496) - http://www.bohemiancoding.com/sketch -->
    <title>存款a_icon</title>
    <desc>Created with Sketch.</desc>
    <defs></defs>
    <g id="控件" stroke="none" stroke-width="1" fill="none" fill-rule="evenodd">
        <g id="Artboard" transform="translate(-128.000000, -55.000000)">
            <g id="Group-16" transform="translate(38.000000, 48.000000)">
                <g id="Group-11-Copy" transform="translate(80.000000, 0.000000)">
                    <g id="Group-9-Copy" transform="translate(10.000000, 7.000000)">
                        <path d="M16,1.25 L16,1 L15.5,1 L1.5,1 L1,1 L1,2 L1.5,2 L15,2 L15,11.5 L15,12 L16,12 L16,11.5 L16,1.5 L16,1.25 Z" id="Combined-Shape" fill="#404E68"></path>
                        <rect id="Rectangle-5" stroke="#404E68" x="0.5" y="3.5" width="13" height="11"></rect>
                        <path d="M3.624,6.12 L5.704,6.12 C5.792,5.872 5.872,5.624 5.944,5.368 L6.792,5.472 C6.728,5.696 6.664,5.912 6.592,6.12 L10.552,6.12 L10.552,6.936 L6.28,6.936 C5.976,7.608 5.616,8.24 5.184,8.816 L5.184,12.84 L4.36,12.84 L4.36,9.784 C4.176,9.976 3.992,10.152 3.8,10.328 L3.28,9.656 C4.176,8.872 4.864,7.96 5.36,6.936 L3.624,6.936 L3.624,6.12 Z M5.68,9.904 L7.912,9.904 L7.912,9.288 C8.328,9.056 8.72,8.784 9.104,8.48 L6.288,8.48 L6.288,7.712 L10.144,7.712 L10.144,8.48 C9.736,8.88 9.272,9.264 8.744,9.624 L8.744,9.904 L10.656,9.904 L10.656,10.712 L8.744,10.712 L8.744,11.928 C8.744,12.512 8.456,12.808 7.88,12.808 L6.896,12.808 L6.68,12.024 C6.952,12.04 7.24,12.048 7.552,12.048 C7.792,12.048 7.912,11.92 7.912,11.672 L7.912,10.712 L5.68,10.712 L5.68,9.904 Z" id="存" fill="#404E68"></path>
                    </g>
                </g>
            </g>
        </g>
    </g>
</svg>