<svg xmlns="http://www.w3.org/2000/svg" width="20" height="20" viewBox="0 0 20 20">
    <g fill="none" fill-rule="evenodd" opacity=".2">
        <path d="M0 0h20v20H0z"/>
        <path fill="#000" d="M15 6.667h-.833V5C14.167 2.7 12.3.833 10 .833A4.168 4.168 0 0 0 5.833 5v1.667H5c-.917 0-1.667.75-1.667 1.666v8.334c0 .916.75 1.666 1.667 1.666h10c.917 0 1.667-.75 1.667-1.666V8.333c0-.916-.75-1.666-1.667-1.666zm-5 7.5c-.917 0-1.667-.75-1.667-1.667s.75-1.667 1.667-1.667 1.667.75 1.667 1.667-.75 1.667-1.667 1.667zm2.583-7.5H7.417V5A2.586 2.586 0 0 1 10 2.417 2.586 2.586 0 0 1 12.583 5v1.667z"/>
    </g>
</svg>
