<svg xmlns="http://www.w3.org/2000/svg" width="50" height="50" viewBox="0 0 50 50">
    <path fill="#FFF" fill-rule="nonzero" d="M49.043 28.602c-.272.86.019 1.833-.299 2.602-.349.844-1.1 1.33-1.595 2-.217.296-.192.56-.398.901l-.798.6c-.242.343-.356.88-.698 1.101-.958.62-2.035.878-3.09 1.401-.61.304-1.153.841-1.794 1.101-.697.282-1.37-.108-1.994.1-.272.09-.534.48-.797.6-1.013.466-2.473.763-3.788.801l-.1.2c-.65.931-.411 4.335-1.495 4.803-.154.106-.407.103-.698.1-1.544-1.412-2.5-1.486-1.794-4.102h-.2c-.559.481-1.49.102-2.392.3-1.09.24-2.459.035-3.688.3-1.23.265-2.74-.007-4.186.2-2.079.298-6.324.543-8.673 0H8.672c-1.147-.254-2.673-.238-3.688-.5-1.319-.342-4.32.316-4.984-.3h.2c1.127-.952 5.564-.107 7.176-.701v-.1H6.58v-.2c1.233.005 4.032.133 4.585-.8l.1-.1h-.797c-.652.414-4.162.162-4.885.1v-.2h1.495c.101-.26-.038-.208.2-.4.826-.537 1.163-.103 2.093-.301.335-.072 2.014.053 2.292-.1l.1-.3c.266-.119.78.075.897.1.714.152 1.531-.092 1.994-.2.796-.187 1.461.079 1.993-.3-2.966-.014-5.301.163-7.974.2l-.2-.3c.639-.006 1.133-.187 1.595-.3h1.695c.21-.094.38-.415.698-.502.565-.154 1.222-.095 1.694-.2 1.354-.298 2.687.351 4.087 0 2.205-.552 4.395-.846 6.28-1.6.798-.32 1.764-.224 2.393-.701l.1-.1c-.389-.31-.4-.792-.699-1.2-.836-1.145-2.36-4.321-1.893-6.305.171-.731-.035-1.849.498-2.201V25.5c.326.555.19 1.463.399 2.101.321.98.875 1.878 1.296 2.702.363.712.453 1.598 1.395 1.701.026-2.545-1.048-3.395-.897-6.004.458-.27.74-.484 1.495-.5.372.335.818.576 1.097 1 .74 1.127 1.053 3.652 2.79 3.703.142.096.327.097.599.1.265-.406.816-.622.997-1.101.4-1.057.29-2.111.598-3.202.67-2.367 1.34-4.842 1.894-7.405h-.399c-.83.518-3.137.635-3.489 1.501h-.1l.1.1c.532.507 1.027.81 1.097 1.8-.249.346-.246.855-.499 1.202-.1.138-.85.799-.997.9-.31.209-.644.377-.996.5h-.698c-.143.075-.306.57-.399.701-.56-.138-.877-.544-1.296-.8-.931-.571-2.37-.317-2.492-1.702.457-.268 1.402-.67 1.595-1.2l.1-.1h-.897c-.168-.115-.488-.107-.797-.1v-.1h.099c.228-.373.601-1.012.997-1.201.28-.134.547-.051.797-.2.907-.542 1.775-1.312 2.791-1.801.937-.452 2.116-.559 3.19-.8l2.093-.2c.265-.134.442-.441.798-.601l.997-3.802c.049-.489-.485-.66-.598-1.001-.407-1.22.593-4.354.996-4.903.26-.355 1.037-.659 1.595-.7.361.217.832.092 1.097.4.488.63-.247 2.917-.499 3.602-.154.42-.256 1.044-.498 1.5l-1.296 1.102c-.267.493-.14 1.027-.3 1.6l-.697 2.502c.154.41.385.528.399 1.2-.15.146-.237.482-.399.601-.327.24-.314-.12-.498.3-.385.571-.291 1.46-.499 2.202-.525 1.877-.973 4.027-1.495 5.904-.17.613-.558 2.016-.399 2.401.269.283.505.423.698.8l2.392-.7c2.022-1.02 4.072-2.386 5.882-3.702l.398-.5c.675-.493 1.602-.94 2.094-1.602.281-.378.283-.841.797-1 .252-.137.81.106 1.196.2.102 1.153 1.01 1.619 1.296 2.701.332 1.255-.556 2.242-.797 3.003zm-15.251 2.702s-.81 4.002-1.396 4.903c-.186.462-1.408.961-1.794 1.7-.367.706-.256 1.764-.698 2.402v.2l3.689-.8.1-.1c.001-.703.125-1.655-.1-2.202-.027-.063-.272-.295-.3-.4-.17-.657 1.297-6.004 1.297-6.004l-.798.3z"/>
</svg>
