<svg xmlns="http://www.w3.org/2000/svg" width="24" height="24" viewBox="0 0 24 24">
    <g fill="none" fill-rule="evenodd">
        <path d="M0 0h24v24H0z"/>
        <path fill="#404E68" d="M13.059 2.333h-2.235V13.51h2.235V2.333zm3.979 2.727l-1.62 1.621c1.933 1.174 3.23 3.286 3.23 5.711 0 3.7-3.007 6.706-6.707 6.706a6.711 6.711 0 0 1-6.706-6.706c0-2.425 1.297-4.537 3.22-5.722l-1.61-1.61A8.898 8.898 0 0 0 3 12.392a8.939 8.939 0 0 0 8.941 8.941 8.939 8.939 0 0 0 8.941-8.94c0-3.04-1.52-5.723-3.844-7.333z"/>
    </g>
</svg>
